<?xml version="1.0" encoding="utf-8"?>
<!-- Generator: Adobe Illustrator 26.4.1, SVG Export Plug-In . SVG Version: 6.00 Build 0)  -->
<svg version="1.1" id="Layer_1" xmlns="http://www.w3.org/2000/svg" xmlns:xlink="http://www.w3.org/1999/xlink" x="0px" y="0px"
	 viewBox="0 0 200 200" style="enable-background:new 0 0 200 200;" xml:space="preserve">
<style type="text/css">
	.st0{fill:#FFFFFF;}
</style>
<g>
	<path class="st0" d="M52.7,177.5c-4.3-2.7-8.3-5.1-12.8-7.8c2.3-3.8,4.3-7.4,6.5-10.9c6.7-10.9,13.5-21.9,20.3-32.8
		c1.4-2.2,1.3-3.6-0.7-5.5C54,109.3,47.6,95.4,47.4,78.9c-0.2-27,19.3-51.1,46-55.5c33.2-5.5,59.2,14.2,65.2,42.2
		c7.6,36.1-15,63.6-46,68.8c-9.4,1.6-18.5,0.6-27.4-2.5c-2.6-0.9-4-0.6-5.5,1.9c-8,13.3-16.2,26.5-24.3,39.7
		C54.6,174.8,53.8,175.9,52.7,177.5z M146.7,78.8c0-24-18.8-43-42.7-43c-23.8,0-43.1,19.1-43.1,42.8c0,23.8,19.1,43,42.9,43
		C127.9,121.6,146.7,102.9,146.7,78.8z"/>
</g>
</svg>
